<svg xmlns="http://www.w3.org/2000/svg" viewBox="0 0 590.65 169.51"><defs><style>.cls-1{fill:#2c3e50;}.cls-2{fill:#2ecc71;}.cls-3{fill:#3498db;}.cls-4{fill:#e74c3c;}.cls-5{fill:#f1c40f;}</style></defs><title>Logo-B</title><g id="Capa_2" data-name="Capa 2"><g id="Layer_1" data-name="Layer 1"><line class="cls-1" x1="199.89" y1="13.33" x2="201.91" y2="13.33"/><path class="cls-1" d="M40.63,38.39a13.57,13.57,0,0,0-4-5.2,16.43,16.43,0,0,0-6.13-3,31.1,31.1,0,0,0-7.88-.93q-6.31,0-9.92,1.69a14.94,14.94,0,0,0-5.37,3.85,10.45,10.45,0,0,0-2.22,4.26A16.05,16.05,0,0,0,4.67,42q0,4.44,1.81,6.83a11.56,11.56,0,0,0,4.85,3.68,51.68,51.68,0,0,0,6.83,2.22q3.68.94,8.58,2.22,3.5.94,6.95,1.93a23.59,23.59,0,0,1,6.19,2.74,14.22,14.22,0,0,1,4.44,4.44,13,13,0,0,1,1.69,7,14.52,14.52,0,0,1-1.93,7.71,15.84,15.84,0,0,1-5,5.14,21.57,21.57,0,0,1-7,2.86,35.43,35.43,0,0,1-7.76.88q-12,0-18.16-5.25T0,67.81H2.34Q2.34,78,8,82.7t16.29,4.73A31.13,31.13,0,0,0,31,86.67a20.52,20.52,0,0,0,6.25-2.45,14.57,14.57,0,0,0,4.61-4.38,11.43,11.43,0,0,0,1.81-6.54,10.56,10.56,0,0,0-1.81-6.42,14.29,14.29,0,0,0-4.67-4,27.48,27.48,0,0,0-6.6-2.51L23,58.47q-4.32-1.05-7.59-2a41.8,41.8,0,0,1-5.84-2.1,11.51,11.51,0,0,1-5.49-4.55A15.12,15.12,0,0,1,2.34,42a14.09,14.09,0,0,1,1.05-5.14A13,13,0,0,1,6.89,32a18.94,18.94,0,0,1,6.31-3.62,27.85,27.85,0,0,1,9.46-1.4q10,0,15.88,4.55t5.84,14.59H42A18.93,18.93,0,0,0,40.63,38.39Z"/><path class="cls-1" d="M56.62,5V43.17h.23a21.21,21.21,0,0,1,2.63-6.42A20.28,20.28,0,0,1,70.4,28.17a25,25,0,0,1,8.06-1.23A25.29,25.29,0,0,1,87,28.35,18.31,18.31,0,0,1,98.24,39.26a25.35,25.35,0,0,1,1.58,9.28V88.36H97.48V48.9A23.44,23.44,0,0,0,96,40a16.68,16.68,0,0,0-4.14-6.07,16.39,16.39,0,0,0-6.07-3.5,23.7,23.7,0,0,0-7.3-1.11,20.9,20.9,0,0,0-9.46,2,20.09,20.09,0,0,0-6.83,5.49,24,24,0,0,0-4.15,8,32.38,32.38,0,0,0-1.4,9.57v34H54.28V5Z"/><path class="cls-1" d="M196.23,88.36v-60h2.33V43.17h.23a23.19,23.19,0,0,1,2.57-6.36,17.91,17.91,0,0,1,4.67-5.2,22.88,22.88,0,0,1,6.95-3.5,29,29,0,0,1,9.4-1.17v2.34A22.51,22.51,0,0,0,211.7,31a20.24,20.24,0,0,0-7.41,5.6A23.49,23.49,0,0,0,200,44.81a33.14,33.14,0,0,0-1.4,9.57v34Z"/><path class="cls-1" d="M236.89,88.36h-2.33V5h2.33v57.8l41.45-34.44h3.39L254.17,51.23l29.54,37.13h-3.15L252.42,52.87,236.89,65.71Z"/><path class="cls-1" d="M197.71,168.35V113.14h2.15v13.64h.21a21.35,21.35,0,0,1,2.36-5.85,16.48,16.48,0,0,1,4.3-4.78,21,21,0,0,1,6.39-3.22,26.64,26.64,0,0,1,8.65-1.07V114a20.72,20.72,0,0,0-9.83,1.56,18.62,18.62,0,0,0-6.82,5.16,21.61,21.61,0,0,0-4,7.57,30.5,30.5,0,0,0-1.29,8.81v31.26Z"/><path class="cls-1" d="M237.78,157.61a13.25,13.25,0,0,0,.7,4.83,6.18,6.18,0,0,0,1.77,2.58,4.64,4.64,0,0,0,2.36,1,20.81,20.81,0,0,0,2.58.16q1.61,0,2.9-.05a6.1,6.1,0,0,0,1.83-.27V168l-1.88.22q-.91.11-3.38.11a9.62,9.62,0,0,1-6.39-2.2q-2.63-2.2-2.63-8.11V115.28h-10.1v-2.15h10.1V95.73h2.15v17.4h12.46v2.15H237.78Z"/><path class="cls-1" d="M262.11,93.15v34.44h.21a19.12,19.12,0,0,1,2.37-5.79,18.29,18.29,0,0,1,9.85-7.74,22.54,22.54,0,0,1,7.27-1.11,22.81,22.81,0,0,1,7.74,1.26,17,17,0,0,1,6.11,3.74,16.83,16.83,0,0,1,4,6.11,22.87,22.87,0,0,1,1.42,8.37v35.92H299v-35.6a21.15,21.15,0,0,0-1.37-8.06,15,15,0,0,0-3.74-5.48,14.77,14.77,0,0,0-5.48-3.16,21.37,21.37,0,0,0-6.58-1,18.85,18.85,0,0,0-8.53,1.84,18.13,18.13,0,0,0-6.16,5,21.68,21.68,0,0,0-3.74,7.22,29.22,29.22,0,0,0-1.26,8.64v30.65H260V93.15Z"/><path class="cls-1" d="M308.33,130.59a27.15,27.15,0,0,1,4.69-9,23.68,23.68,0,0,1,7.64-6.27,22.39,22.39,0,0,1,10.53-2.37,22.16,22.16,0,0,1,10.43,2.37,23.72,23.72,0,0,1,7.64,6.27,27.19,27.19,0,0,1,4.69,9,37,37,0,0,1,0,21.38,27.14,27.14,0,0,1-4.69,9,23.08,23.08,0,0,1-7.64,6.22,22.84,22.84,0,0,1-10.53,2.32,22.59,22.59,0,0,1-10.43-2.32A23,23,0,0,1,313,161a27.11,27.11,0,0,1-4.69-9,37,37,0,0,1,0-21.38Zm1.95,20.59a25.18,25.18,0,0,0,4.27,8.37,21.13,21.13,0,0,0,7,5.79,20.62,20.62,0,0,0,9.64,2.16,20.39,20.39,0,0,0,9.53-2.16,21.16,21.16,0,0,0,7-5.79,25.18,25.18,0,0,0,4.27-8.37,34.27,34.27,0,0,0,1.42-9.9,33.9,33.9,0,0,0-1.42-9.8,25.17,25.17,0,0,0-4.27-8.37,21.75,21.75,0,0,0-7-5.85,20,20,0,0,0-9.53-2.21,20.23,20.23,0,0,0-9.64,2.21,21.73,21.73,0,0,0-7,5.85,25.18,25.18,0,0,0-4.27,8.37,33.92,33.92,0,0,0-1.42,9.8A34.29,34.29,0,0,0,310.28,151.18Z"/><path class="cls-1" d="M363.3,114.21v13.38h.21a19.12,19.12,0,0,1,2.37-5.79,18.29,18.29,0,0,1,9.85-7.74,22.54,22.54,0,0,1,7.27-1.11,22.82,22.82,0,0,1,7.74,1.26,16.51,16.51,0,0,1,10.11,9.85,22.87,22.87,0,0,1,1.42,8.37v35.92h-2.11v-35.6a21.14,21.14,0,0,0-1.37-8.06,15,15,0,0,0-3.74-5.48,14.77,14.77,0,0,0-5.48-3.16,21.36,21.36,0,0,0-6.58-1,18.85,18.85,0,0,0-8.53,1.84,18.13,18.13,0,0,0-6.16,5,21.68,21.68,0,0,0-3.74,7.22,29.2,29.2,0,0,0-1.26,8.64v30.65h-2.11V114.21Z"/><path class="cls-1" d="M127.33,5.43"/><path class="cls-1" d="M191.65,167.31l2.38-.15c0-.59-3.86-59.24-19.75-98.69C157,25.56,127,.58,126.73.33l-1.51,1.84c.3.24,29.8,24.87,46.85,67.19C187.82,108.45,191.62,166.72,191.65,167.31Z"/><path class="cls-1" d="M61.49,168.12c18.38-16.63,32.26-38.5,42.43-66.85,9-25,14.07-51.92,19-78,1.36-7.2,2.77-14.65,4.23-21.82L124.81,1c-1.46,7.18-2.87,14.64-4.23,21.85-10,52.55-20.24,106.89-60.68,143.48Z"/><rect class="cls-1" x="125.07" y="0.57" width="2.08" height="2.08" transform="translate(245.6 -38.73) rotate(160.61)"/><path class="cls-1" d="M126.75.28s-1.67-1-2,.69"/><rect class="cls-2" x="422.04" width="84.3" height="84.3"/><rect class="cls-3" x="506.34" y="84.3" width="84.3" height="84.3"/><rect class="cls-4" x="506.34" width="84.3" height="84.3"/><rect class="cls-5" x="422.04" y="84.3" width="84.3" height="84.3"/></g></g></svg>